# xmcd
#
# Track frame offsets:
#	150
#	17077
#	30355
#	44915
#	60650
#	78970
#	96510
#	98717
#	115652
#	126850
#	142037
#	161800
#	175482
#	192355
#	204315
#	222267
#	236275
#
# Disc length: 3368 seconds
#
# Revision: 1
# Processed by: cddbd v1.5.1PL0 Copyright (c) Steve Scherf et al.
# Submitted via: CDex 1.50Beta5
#
DISCID=ee0d2611
DTITLE=韻踏合組合 - critical11
DYEAR=2002
DGENRE=Rock
TTITLE0=そろい踏み
TTITLE1=ゴエモン
TTITLE2=ミン to the ちゃん
TTITLE3=ポアゾン
TTITLE4=HEAD BANGER
TTITLE5=D.B.C.
TTITLE6=Introom
TTITLE7=ノータブルーム
TTITLE8=転校生
TTITLE9=What’s up B
TTITLE10=critical 11
TTITLE11=ヤットデタマン
TTITLE12=あまからAve.
TTITLE13=Golden time
TTITLE14=Hi-〒
TTITLE15=デンジャーレンジャー
TTITLE16=CHI CHI’N PUI PUI
EXTD=
EXTT0=
EXTT1=
EXTT2=
EXTT3=
EXTT4=
EXTT5=
EXTT6=
EXTT7=
EXTT8=
EXTT9=
EXTT10=
EXTT11=
EXTT12=
EXTT13=
EXTT14=
EXTT15=
EXTT16=
PLAYORDER=
